# xmcd
#
# Track frame offsets:
#	150
#	15095
#	33682
#	49400
#	73110
#	92510
#	111905
#	127450
#	143767
#	160682
#	178957
#	201935
#
# Disc length: 2909 seconds
#
# Revision: 1
# Processed by: cddbd v1.5.1PL0 Copyright (c) Steve Scherf et al.
# Submitted via: CDex 1.50Beta5
#
DISCID=af0b5b0c
DTITLE=柳ジョージ - スーパーベスト・セレクション
DYEAR=1987
DGENRE=Pop
TTITLE0=酔って候
TTITLE1=微笑の法則
TTITLE2=ヘイ・ダーリン
TTITLE3=本牧綺談
TTITLE4=同じ時代に
TTITLE5=雨に泣いてる
TTITLE6=フェンスの向こうのアメリカ
TTITLE7=嘆きのピエロ
TTITLE8=漂うままに
TTITLE9=祭りばやしが聞こえるのテーマ
TTITLE10=ヘビー・デイズ
TTITLE11=遺言
EXTD=
EXTT0=
EXTT1=
EXTT2=
EXTT3=
EXTT4=
EXTT5=
EXTT6=
EXTT7=
EXTT8=
EXTT9=
EXTT10=
EXTT11=
PLAYORDER=
